<svg width="16" height="16" viewBox="0 0 16 16" fill="none" xmlns="http://www.w3.org/2000/svg">
<path fill-rule="evenodd" clip-rule="evenodd" d="M0.287755 0.287755C0.671428 -0.0959182 1.29348 -0.0959182 1.67716 0.287755L8 6.6106L14.3228 0.287755C14.7065 -0.0959182 15.3286 -0.0959182 15.7122 0.287755C16.0959 0.671428 16.0959 1.29348 15.7122 1.67716L9.3894 8L15.7122 14.3228C16.0959 14.7065 16.0959 15.3286 15.7122 15.7122C15.3286 16.0959 14.7065 16.0959 14.3228 15.7122L8 9.3894L1.67716 15.7122C1.29348 16.0959 0.671428 16.0959 0.287755 15.7122C-0.0959182 15.3286 -0.0959182 14.7065 0.287755 14.3228L6.6106 8L0.287755 1.67716C-0.0959182 1.29348 -0.0959182 0.671428 0.287755 0.287755Z" fill="#A3ACBE"/>
</svg>
