<svg width="75" height="22" viewBox="0 0 75 22" fill="none" xmlns="http://www.w3.org/2000/svg">
<path d="M32.9954 7.71872L31.2603 16.4363C30.2776 21.3757 27.6456 21.7923 24.32 21.8217C22.8452 21.8217 22.2087 21.7628 21.1387 21.3757C18.7385 20.394 17.8716 22.6253 14.6617 21.8217C13.3601 21.4949 11.7695 20.5132 10.2947 21.9704C11.422 20.6016 13.0425 20.7798 14.4587 20.9887C17.3509 21.4052 18.0161 18.1319 15.2397 18.4293C13.2443 18.6369 11.8268 20.7208 9.10893 19.3521C7.46102 18.519 6.39107 16.8824 4.27981 17.2092C3.383 17.3578 1.27298 18.5177 0 17.8038C1.35893 18.4293 2.97818 17.2386 4.01949 16.8811C6.13075 16.1672 7.22935 17.0887 8.50233 17.8038C10.7294 19.0534 12.5505 17.982 12.9266 17.1489C13.5345 15.7802 12.5505 14.2627 10.1789 14.7382C9.31196 14.9163 6.6514 15.7802 5.49425 14.3511C6.68005 15.511 8.7913 14.5895 9.80272 14.2319C12.6078 13.2502 13.446 14.1128 15.2397 15.2726C17.8716 16.9682 19.0275 15.4213 19.375 13.9641C19.8371 12.0301 19.375 11.8814 17.8716 12.0006C16.8589 12.0903 15.8762 11.9712 14.719 10.8408C13.0998 9.2336 11.5665 10.0667 10.8154 10.751C11.828 9.70908 13.0998 9.08493 15.2982 10.2153C19.2305 12.239 21.14 6.34738 17.8716 6.16923C14.9507 6.02056 14.3142 7.53801 11.2202 8.2224C10.0057 8.49026 7.8073 8.51973 6.21794 7.03176C8.32919 8.69788 12.6377 7.80587 12.7535 5.57327C12.8693 3.16253 8.12616 1.67584 3.64457 5.72194C6.13199 3.25224 8.7913 2.32947 11.1629 2.5089C13.39 2.68705 14.2283 3.78797 16.0792 4.23525C18.3349 4.77097 21.3418 4.11606 21.921 2.74728C22.4416 1.52717 20.9382 0.813307 18.6239 1.79503C16.8888 2.53838 15.7902 2.74728 13.679 1.52717C16.3395 2.89595 17.6984 1.40798 19.1446 0.604401C22.0368 -1.00276 23.6561 1.11064 26.5184 1.05041C27.2707 0.991453 28.0804 0.991453 28.9186 0.991453H32.3315L31.4932 5.12727H29.7582L30.2203 2.77676C26.7501 2.77676 25.7673 3.25224 25.1308 6.40633L24.2639 10.6319L23.1939 15.9878C22.4416 19.766 22.7019 20.0339 24.3212 20.0339C25.6228 20.0339 26.4611 19.8263 27.1549 16.4043L28.5425 9.50146H26.8946V7.71615H32.9967L32.9954 7.71872Z" fill="url(#paint0_linear_9545_126264)"/>
<path d="M46.5286 6.94461V8.72992C43.4346 8.72992 39.5883 9.20541 38.1422 16.585L37.1008 21.8217H32.9942L35.9151 7.21247C37.274 6.94461 39.1822 6.94461 40.0504 6.94461L39.6456 8.99778C41.7855 7.183 44.3302 6.94461 46.5274 6.94461H46.5286Z" fill="url(#paint1_linear_9545_126264)"/>
<path d="M48.2924 7.21247C49.6513 6.94461 51.5595 6.94461 52.4277 6.94461L49.4782 21.8218H45.3715L48.2924 7.21247ZM53.758 0.398059L52.8039 5.15931L50.2305 0.398059H53.758Z" fill="url(#paint2_linear_9545_126264)"/>
<path d="M56.563 0.399341H60.9873L56.7075 21.823H52.6008L56.563 1.97702V0.399341Z" fill="url(#paint3_linear_9545_126264)"/>
<path d="M63.7924 0.399341H68.2167L63.9369 21.823H59.8302L63.7924 1.97702V0.399341Z" fill="url(#paint4_linear_9545_126264)"/>
<path d="M71.5057 10.1911H74.0667L73.8859 11.1093H69.1858V10.1911H69.3665L71.1893 1.20854L71.355 0.397508H73.4942L71.5057 10.1911Z" fill="white"/>
<defs>
<linearGradient id="paint0_linear_9545_126264" x1="13.5916" y1="11.022" x2="102.512" y2="11.022" gradientUnits="userSpaceOnUse">
<stop stop-color="#C43333"/>
<stop offset="1" stop-color="#F9A11E"/>
</linearGradient>
<linearGradient id="paint1_linear_9545_126264" x1="13.5916" y1="11.022" x2="102.512" y2="11.022" gradientUnits="userSpaceOnUse">
<stop stop-color="#C43333"/>
<stop offset="1" stop-color="#F9A11E"/>
</linearGradient>
<linearGradient id="paint2_linear_9545_126264" x1="13.5916" y1="11.022" x2="102.512" y2="11.022" gradientUnits="userSpaceOnUse">
<stop stop-color="#C43333"/>
<stop offset="1" stop-color="#F9A11E"/>
</linearGradient>
<linearGradient id="paint3_linear_9545_126264" x1="13.5916" y1="11.022" x2="102.512" y2="11.022" gradientUnits="userSpaceOnUse">
<stop stop-color="#C43333"/>
<stop offset="1" stop-color="#F9A11E"/>
</linearGradient>
<linearGradient id="paint4_linear_9545_126264" x1="13.5916" y1="11.022" x2="102.512" y2="11.022" gradientUnits="userSpaceOnUse">
<stop stop-color="#C43333"/>
<stop offset="1" stop-color="#F9A11E"/>
</linearGradient>
</defs>
</svg>
